<svg width="610" height="610" viewBox="0 0 610 610" fill="none" xmlns="http://www.w3.org/2000/svg">
<path d="M134.441 326.303L388.921 71.8877H360.003L125.609 306.222L119.981 340.758L388.921 609.629V587.594V580.718V507.894V479.452V478.983L358.83 448.901L236.28 326.303L376.963 185.656V184.718L388.921 172.763V144.712L207.283 326.303L368.366 487.344V560.168L134.441 326.303Z" fill="#3031E4"/>
<path d="M168.441 365.37L68.4772 465.308V20.472H513.427L207.363 326.458L221.822 340.913L562.823 0H48V514.691L182.9 379.826L168.441 365.37Z" fill="#3031E4"/>
<path d="M119.981 71.9644V340.757L388.843 71.9644H119.981ZM140.459 92.4364H339.447L140.459 291.374V92.4364Z" fill="#3031E4"/>
</svg>
